<?xml version="1.0" encoding="UTF-8" standalone="no"?>
<svg width="62px" height="46px" viewBox="0 0 62 46" version="1.1" xmlns="http://www.w3.org/2000/svg" xmlns:xlink="http://www.w3.org/1999/xlink">
    <!-- Generator: Sketch 3.6.1 (26313) - http://www.bohemiancoding.com/sketch -->
    <title>Artboard</title>
    <desc>Created with Sketch.</desc>
    <defs></defs>
    <g id="assets" stroke="none" stroke-width="1" fill="none" fill-rule="evenodd">
        <g id="Artboard" fill="#FFFFFF">
            <path d="M19,24 C15.1,24 12,27.1 12,31 C12,34.9 15.1,38 19,38 C22.9,38 26,34.9 26,31 C26,27.1 22.9,24 19,24 L19,24 Z M19,36 C16.2,36 14,33.8 14,31 C14,28.2 16.2,26 19,26 C21.8,26 24,28.2 24,31 C24,33.8 21.8,36 19,36 L19,36 Z" id="Shape"></path>
            <path d="M36,26 C33.8,26 32,27.8 32,30 C32,32.2 33.8,34 36,34 C38.2,34 40,32.2 40,30 C40,27.8 38.2,26 36,26 L36,26 Z M36,32 C34.9,32 34,31.1 34,30 C34,28.9 34.9,28 36,28 C37.1,28 38,28.9 38,30 C38,31.1 37.1,32 36,32 L36,32 Z" id="Shape"></path>
            <path d="M61.9,16.6 C61.9,16.5 61.8,16.5 61.8,16.4 C61.8,16.4 61.8,16.3 61.7,16.3 C61.6,16.2 61.5,16.2 61.4,16.1 L61.4,16.1 L61.4,16.1 L23.4,0.1 C23.3,0 23.1,0 23,0 C4.8,0 0,10.6 0,16.8 L0,45 C0,45.6 0.4,46 1,46 L61,46 C61.6,46 62,45.6 62,45 L62,39 C62,38.4 61.6,38 61,38 C57.1,38 54,34.9 54,31 C54,27.1 57.1,24 61,24 C61.6,24 62,23.6 62,23 L62,17 C62,16.9 62,16.8 61.9,16.6 L61.9,16.6 L61.9,16.6 Z M22.8,2 L56,16 L2,16 C2.5,10.5 7.2,2.1 22.8,2 L22.8,2 Z M52,31 C52,35.6 55.5,39.4 60,39.9 L60,44 L2,44 L2,18 L60,18 L60,22.1 C55.5,22.6 52,26.4 52,31 L52,31 Z" id="Shape"></path>
        </g>
    </g>
</svg>