<?xml version="1.0" encoding="UTF-8" standalone="no"?>
<svg width="63px" height="60px" viewBox="0 0 63 60" version="1.1" xmlns="http://www.w3.org/2000/svg" xmlns:xlink="http://www.w3.org/1999/xlink">
    <!-- Generator: Sketch 3.6.1 (26313) - http://www.bohemiancoding.com/sketch -->
    <title>Artboard</title>
    <desc>Created with Sketch.</desc>
    <defs></defs>
    <g id="assets" stroke="none" stroke-width="1" fill="none" fill-rule="evenodd">
        <g id="Artboard" fill="#FFFFFF">
            <path d="M61,0.4 C55.9,0.4 52.2,2.5 49.9,6.5 C47.5,4.8 44.6,4 41.7,4.2 C38,4.4 34.5,6.2 32.2,9.2 L1.6,48.2 C-0.6,51 -0.4,55.1 2.2,57.7 C3.6,59.1 5.4,59.8 7.3,59.8 C8.9,59.8 10.4,59.3 11.7,58.3 L50.7,27.7 C53.6,25.4 55.5,21.9 55.7,18.2 C55.9,14.5 54.5,10.8 51.9,8.2 C51.8,8.1 51.7,8.1 51.7,8 C53.6,4.4 56.7,2.7 61.2,2.7 C61.8,2.7 62.2,2.3 62.2,1.7 C62.2,1.1 61.6,0.4 61,0.4 L61,0.4 Z M53.5,17.8 C53.3,21 51.8,23.9 49.3,25.9 L30.5,40.7 L24.7,34.9 C24.3,34.5 23.7,34.5 23.3,34.9 C22.9,35.3 22.9,35.9 23.3,36.3 L28.9,41.9 L10.3,56.5 C8.3,58.1 5.3,57.9 3.5,56.1 C1.7,54.3 1.5,51.3 3.1,49.3 L7,44.4 L10.3,47.7 C10.5,47.9 10.8,48 11,48 C11.2,48 11.5,47.9 11.7,47.7 C12.1,47.3 12.1,46.7 11.7,46.3 L8.2,42.8 L27.9,17.8 L34.9,24.8 C35.1,25 35.4,25.1 35.6,25.1 C35.8,25.1 36.1,25 36.3,24.8 C36.7,24.4 36.7,23.8 36.3,23.4 L29.1,16.2 L33.7,10.3 C35.7,7.8 38.6,6.3 41.8,6.1 C45,5.9 48.1,7.1 50.3,9.3 C52.5,11.5 53.7,14.7 53.5,17.8 L53.5,17.8 Z" id="Shape"></path>
        </g>
    </g>
</svg>