<?xml version="1.0" encoding="UTF-8" standalone="no"?>
<svg width="59px" height="64px" viewBox="0 0 59 64" version="1.1" xmlns="http://www.w3.org/2000/svg" xmlns:xlink="http://www.w3.org/1999/xlink">
    <!-- Generator: Sketch 3.6.1 (26313) - http://www.bohemiancoding.com/sketch -->
    <title>Artboard</title>
    <desc>Created with Sketch.</desc>
    <defs></defs>
    <g id="assets" stroke="none" stroke-width="1" fill="none" fill-rule="evenodd">
        <g id="Artboard" fill="#FFFFFF">
            <path d="M16.3,60.7 C18.3,62.4 20.6,63 22.7,63 C25.9,63 28.8,61.7 29.9,61.1 C31.8,62.1 38.4,65.1 43.5,60.7 C56.4,49.7 59,39.4 58.9,32.6 C58.8,24.3 54.7,18.2 51.3,15.4 C45.6,11 39.2,9.9 32,12 C33,7.6 35,5.1 38.6,2.8 C39.1,2.5 39.2,1.9 38.9,1.4 C38.6,0.9 38,0.8 37.5,1.1 C33,4 30.8,7.5 29.8,12.5 L29.7,12.5 C29,11 28.1,9.4 26.7,8.1 C22.8,4.2 17.1,3.8 16.8,3.8 C16.5,3.8 16.2,3.9 16,4.1 C15.8,4.3 15.7,4.6 15.7,4.9 C15.7,5.1 15.9,8.2 17.5,11.4 C14.3,12 11.3,13.4 8.5,15.6 C4.9,18.3 1.2,24.6 1,32.3 C0.8,39.2 3.4,49.6 16.3,60.7 L16.3,60.7 Z M25.3,9.5 C26.5,10.7 27.3,12.1 27.9,13.4 C27.9,13.6 28,13.8 28.1,13.9 C28.6,15 28.9,16.1 29,16.8 C27.2,16.5 23.9,15.6 21.5,13.3 C19.1,11 18.3,7.7 18,6 C19.7,6.2 22.9,7.1 25.3,9.5 L25.3,9.5 Z M3,32.4 C3.2,25.3 6.5,19.6 9.8,17.1 C12.7,14.9 15.6,13.6 18.8,13.2 C19.2,13.7 19.6,14.3 20.1,14.7 C23.1,17.6 27.2,18.6 29.1,18.9 C29,20.1 29,21.5 29,22.9 C26.7,22.7 24.5,21.8 22.4,20.2 C22,19.9 21.3,20 21,20.4 C20.7,20.8 20.8,21.5 21.2,21.8 C23.9,23.8 27,24.9 30,24.9 C33,24.9 36.1,23.8 38.8,21.8 C39.2,21.5 39.3,20.8 39,20.4 C38.7,20 38,19.9 37.6,20.2 C35.5,21.7 33.3,22.6 31,22.9 C31,21.2 31.1,19.6 31.1,18.2 L31.1,18 L31.1,17.8 L31.1,17.6 C31.1,17.6 31.1,17.6 31.1,17.5 C31.2,16.3 31.3,15.1 31.5,14.1 C38.6,11.8 44.6,12.7 50.1,17 C53.4,19.6 56.8,25.5 57,32.6 C57.1,38.9 54.6,48.7 42.3,59.1 C37.4,63.2 30.5,59.1 30.5,59 C30.2,58.8 29.8,58.8 29.5,59 C29.4,59 22.4,63.2 17.7,59.1 C5.2,48.6 2.8,38.8 3,32.4 L3,32.4 Z" id="Shape"></path>
        </g>
    </g>
</svg>