<?xml version="1.0" encoding="UTF-8" standalone="no"?>
<svg width="60px" height="42px" viewBox="0 0 60 42" version="1.1" xmlns="http://www.w3.org/2000/svg" xmlns:xlink="http://www.w3.org/1999/xlink">
    <!-- Generator: Sketch 3.6.1 (26313) - http://www.bohemiancoding.com/sketch -->
    <title>Artboard</title>
    <desc>Created with Sketch.</desc>
    <defs></defs>
    <g id="assets" stroke="none" stroke-width="1" fill="none" fill-rule="evenodd">
        <g id="Artboard" fill="#FFFFFF">
            <circle id="Oval" cx="13" cy="20" r="2"></circle>
            <path d="M59.4,16.1 C59.1,15.9 58.6,16 58.3,16.2 L49.2,23.5 C47.2,20.5 40.3,11.4 29.1,8.7 C28.6,6 28.8,3.3 29.8,1.4 C30,1.1 30,0.7 29.8,0.4 C29.7,0.2 29.4,0 29,0 C23.8,0 19,4.6 17,9 C6.4,12.5 0.4,24 0.1,24.5 C-1.44328993e-15,24.8 -1.44328993e-15,25.1 0.1,25.4 C0.2,25.6 2.2,29.6 6,33.6 C9.7,37.5 13.8,40.1 18,41.2 C18.1,41.2 18.1,41.2 18.2,41.3 C19.8,41.7 21.4,41.9 23,41.9 C37.7,41.9 46.9,29.9 49.2,26.4 L58.3,33.7 C58.5,33.8 58.7,33.9 58.9,33.9 C59,33.9 59.2,33.9 59.3,33.8 C59.6,33.6 59.9,33.3 59.9,32.9 L59.9,17 C60,16.6 59.8,16.3 59.4,16.1 L59.4,16.1 Z M2.1,25 C3.3,22.9 8.8,14 17.3,11 C20.6,15.9 22.1,20.2 22.1,25 C22.1,30.4 20.7,35 18,39.2 C9,36.5 3.3,27.2 2.1,25 L2.1,25 Z M23,40 C22,40 21,39.9 20,39.7 C22.7,35.3 24.1,30.5 24.1,25 C24.1,19.8 22.4,14.9 18.9,9.7 C20.5,6.3 23.8,2.9 27.5,2.2 C26.8,4.4 26.8,7.1 27.4,9.8 C27.5,10.2 27.8,10.5 28.2,10.6 C39.3,13 46.3,22.7 47.8,25 C46,27.7 37.1,40 23,40 L23,40 Z M58,30.9 L50.6,25 L58,19.1 L58,30.9 L58,30.9 Z" id="Shape"></path>
        </g>
    </g>
</svg>