<?xml version="1.0" encoding="UTF-8" standalone="no"?>
<svg width="62px" height="63px" viewBox="0 0 62 63" version="1.1" xmlns="http://www.w3.org/2000/svg" xmlns:xlink="http://www.w3.org/1999/xlink">
    <!-- Generator: Sketch 3.6.1 (26313) - http://www.bohemiancoding.com/sketch -->
    <title>Artboard</title>
    <desc>Created with Sketch.</desc>
    <defs></defs>
    <g id="assets" stroke="none" stroke-width="1" fill="none" fill-rule="evenodd">
        <g id="Artboard" fill="#FFFFFF">
            <path d="M14.7,1.6 C14.5,1.3 14.2,1 13.9,1 C10.2,0.8 6.5,2.1 3.9,4.8 C-1.1,9.8 -1.2,17.8 3.6,22.9 C2.1,27 2.3,30.8 4.2,33.9 C5.6,36.1 7.8,37.8 10.2,38.5 C5.5,41.8 2.5,45 2.2,45.3 C1.8,45.7 1.8,46.3 2.2,46.7 C2.5,47 5.8,50.5 10.9,54 C8,56.4 8,61.7 8,62 C8,62.6 8.4,63 9,63 C9.6,63 10,62.6 10,62 C10,61.9 10.1,56.5 12.8,55.2 C17.8,58.3 24.1,61 31,61 C37.9,61 44.2,58.2 49.2,55.1 C51.5,56.2 52,60.3 52,62 C52,62.6 52.4,63 53,63 L53,63 C53.6,63 54,62.6 54,62 C54,61.7 54,56.3 51,54 C56.1,50.5 59.4,47 59.7,46.7 C60.1,46.3 60.1,45.7 59.7,45.3 C59.4,45 56.5,41.8 51.7,38.5 C54.2,37.7 56.4,36.1 57.7,33.9 C59.6,30.8 59.8,27 58.3,22.9 C63.1,17.8 63,9.8 58,4.8 C55.4,2.2 51.7,0.8 48,1 C47.6,1 47.3,1.3 47.2,1.6 C47,1.9 47.1,2.3 47.3,2.6 C49.7,5.7 51.1,13.1 49.6,14.7 C48,16.3 40.7,14.9 37.5,12.4 C37.2,12.2 36.8,12.1 36.5,12.3 C36.2,12.5 35.9,12.8 35.9,13.1 C35.7,16.8 37,20.5 39.7,23.1 C42.2,25.6 45.6,26.9 48.9,26.9 C51.7,26.9 54.4,26 56.8,24.2 C58.1,28.2 57.1,31 56.1,32.7 C54.7,35 52.1,36.5 49.4,36.8 C44.4,33.7 38,30.8 31,30.8 C24,30.8 17.6,33.6 12.6,36.8 C9.9,36.5 7.3,35 5.9,32.7 C4.8,31 3.9,28.2 5.2,24.2 C7.5,26.1 10.2,27 13,27 C16.3,27 19.7,25.7 22.2,23.2 C24.8,20.6 26.2,16.9 26,13.2 C26,12.8 25.7,12.5 25.4,12.4 C25.1,12.2 24.7,12.3 24.4,12.5 C21.2,15 13.9,16.4 12.3,14.8 C10.8,13.3 12.2,5.8 14.6,2.7 C14.8,2.4 14.9,2 14.7,1.6 L14.7,1.6 Z M41.2,21.8 C39.4,20 38.3,17.6 38,15 C41.8,17 48.6,18.5 51.1,16.1 C53.4,13.9 52.1,7 50,3 C52.5,3.2 54.9,4.3 56.7,6.2 C61,10.5 61,17.5 56.7,21.8 C52.5,26.1 45.5,26.1 41.2,21.8 L41.2,21.8 Z M57.6,46 C56.3,47.3 53,50.3 48.7,53.1 C48.6,53.2 48.4,53.2 48.3,53.3 C43.5,56.3 37.4,59 31,59 C24.6,59 18.6,56.4 13.8,53.4 C13.7,53.2 13.4,53.1 13.2,53 C8.9,50.2 5.7,47.3 4.4,46 C7.2,43.2 18.4,33 31,33 C43.6,33 54.8,43.2 57.6,46 L57.6,46 Z M10.9,16.1 C13.3,18.5 20.1,17 24,15 C23.8,17.5 22.7,19.9 20.8,21.8 C16.5,26.1 9.5,26.1 5.2,21.8 C0.9,17.5 0.9,10.5 5.2,6.2 C7,4.4 9.4,3.3 11.9,3 C9.9,7.1 8.6,13.9 10.9,16.1 L10.9,16.1 Z" id="Shape"></path>
            <circle id="Oval" cx="24" cy="42" r="2"></circle>
            <circle id="Oval" cx="38" cy="42" r="2"></circle>
        </g>
    </g>
</svg>