<?xml version="1.0" encoding="UTF-8" standalone="no"?>
<svg width="112px" height="88px" viewBox="0 0 112 88" version="1.1" xmlns="http://www.w3.org/2000/svg" xmlns:xlink="http://www.w3.org/1999/xlink">
    <!-- Generator: Sketch 3.6.1 (26313) - http://www.bohemiancoding.com/sketch -->
    <title>collectiongrid</title>
    <desc>Created with Sketch.</desc>
    <defs></defs>
    <g id="assets" stroke="none" stroke-width="1" fill="none" fill-rule="evenodd">
        <g id="collectiongrid" fill="#EF075F">
            <rect id="Combined-Shape" opacity="0.2" x="0" y="0" width="112" height="88" rx="4"></rect>
            <path d="M18,16 L94,16 L94,17 L18,17 L18,16 Z M18,20 L94,20 L94,21 L18,21 L18,20 Z M18,24 L74,24 L74,25 L18,25 L18,24 Z" id="Combined-Shape"></path>
            <rect id="Rectangle-103" x="18" y="35" width="36" height="36" rx="1"></rect>
            <rect id="Rectangle-103" x="58" y="35" width="16" height="16" rx="1"></rect>
            <rect id="Rectangle-103" x="78" y="35" width="16" height="16" rx="1"></rect>
            <rect id="Rectangle-103" x="58" y="55" width="16" height="16" rx="1"></rect>
            <rect id="Rectangle-103" x="78" y="55" width="16" height="16" rx="1"></rect>
        </g>
    </g>
</svg>