<?xml version="1.0" encoding="UTF-8" standalone="no"?>
<svg width="112px" height="88px" viewBox="0 0 112 88" version="1.1" xmlns="http://www.w3.org/2000/svg" xmlns:xlink="http://www.w3.org/1999/xlink">
    <!-- Generator: Sketch 3.6.1 (26313) - http://www.bohemiancoding.com/sketch -->
    <title>equalheight</title>
    <desc>Created with Sketch.</desc>
    <defs></defs>
    <g id="assets" stroke="none" stroke-width="1" fill="none" fill-rule="evenodd">
        <g id="equalheight">
            <rect id="Combined-Shape" fill="#009888" opacity="0.2" x="0" y="0" width="112" height="88" rx="4"></rect>
            <g id="Group" transform="translate(14.000000, 25.000000)">
                <rect id="Rectangle-103" fill="#009888" x="0" y="0" width="24" height="37" rx="1"></rect>
                <rect id="Rectangle-107" fill="#B2E0DC" opacity="0.6" x="3" y="3" width="18" height="14" rx="0.5"></rect>
                <path d="M3,20 L21,20 L21,21 L3,21 L3,20 Z M3,23 L21,23 L21,24 L3,24 L3,23 Z M3,26 L15,26 L15,27 L3,27 L3,26 Z" id="Combined-Shape" fill="#B2E0DC"></path>
            </g>
            <g id="Group" transform="translate(44.000000, 25.000000)">
                <rect id="Rectangle-103" fill="#009888" x="0" y="0" width="24" height="37" rx="1"></rect>
                <rect id="Rectangle-107" fill="#B2E0DC" opacity="0.6" x="3" y="3" width="18" height="14" rx="0.5"></rect>
                <path d="M3,23 L21,23 L21,24 L3,24 L3,23 Z M3,20 L21,20 L21,21 L3,21 L3,20 Z M3,26 L21,26 L21,27 L3,27 L3,26 Z M3,29 L21,29 L21,30 L3,30 L3,29 Z M3,32 L15,32 L15,33 L3,33 L3,32 Z" id="Combined-Shape" fill="#B2E0DC"></path>
            </g>
            <g id="Group" transform="translate(74.000000, 25.000000)">
                <rect id="Rectangle-103" fill="#009888" x="0" y="0" width="24" height="37" rx="1"></rect>
                <rect id="Rectangle-107" fill="#B2E0DC" opacity="0.6" x="3" y="3" width="18" height="14" rx="0.5"></rect>
                <path d="M3,23 L21,23 L21,24 L3,24 L3,23 Z M3,20 L21,20 L21,21 L3,21 L3,20 Z M3,26 L21,26 L21,27 L3,27 L3,26 Z M3,29 L15,29 L15,30 L3,30 L3,29 Z" id="Combined-Shape" fill="#B2E0DC"></path>
            </g>
        </g>
    </g>
</svg>