<?xml version="1.0" encoding="UTF-8" standalone="no"?>
<svg width="112px" height="88px" viewBox="0 0 112 88" version="1.1" xmlns="http://www.w3.org/2000/svg" xmlns:xlink="http://www.w3.org/1999/xlink">
    <!-- Generator: Sketch 3.6.1 (26313) - http://www.bohemiancoding.com/sketch -->
    <title>featurelists</title>
    <desc>Created with Sketch.</desc>
    <defs></defs>
    <g id="assets" stroke="none" stroke-width="1" fill="none" fill-rule="evenodd">
        <g id="featurelists" fill="#42B145">
            <rect id="Combined-Shape" opacity="0.2" x="0" y="0" width="112" height="43" rx="4"></rect>
            <rect id="Combined-Shape" opacity="0.2" x="0" y="45" width="112" height="43" rx="4"></rect>
            <g id="Group" transform="translate(21.000000, 10.000000)">
                <rect id="Rectangle-107" x="4" y="0" width="10" height="10" rx="100"></rect>
                <path d="M0,13 L18,13 L18,14 L0,14 L0,13 Z M0,16 L18,16 L18,17 L0,17 L0,16 Z M0,19 L18,19 L18,20 L0,20 L0,19 Z M3,22 L15,22 L15,23 L3,23 L3,22 Z" id="Combined-Shape"></path>
            </g>
            <g id="Group" transform="translate(47.000000, 10.000000)">
                <rect id="Rectangle-107" x="4" y="0" width="10" height="10" rx="100"></rect>
                <path d="M0,13 L18,13 L18,14 L0,14 L0,13 Z M0,16 L18,16 L18,17 L0,17 L0,16 Z M0,19 L18,19 L18,20 L0,20 L0,19 Z M3,22 L15,22 L15,23 L3,23 L3,22 Z" id="Combined-Shape"></path>
            </g>
            <g id="Group" transform="translate(24.000000, 51.000000)">
                <rect id="Rectangle-107" x="0" y="0" width="12" height="12" rx="100"></rect>
                <path d="M16,1 L63,1 L63,2 L16,2 L16,1 Z M16,4 L63,4 L63,5 L16,5 L16,4 Z M16,7 L63,7 L63,8 L16,8 L16,7 Z M16,10 L42,10 L42,11 L16,11 L16,10 Z" id="Combined-Shape"></path>
            </g>
            <g id="Group" transform="translate(25.000000, 70.000000)">
                <rect id="Rectangle-107" x="51" y="0" width="12" height="12" rx="100"></rect>
                <path d="M0,1 L47,1 L47,2 L0,2 L0,1 Z M0,4 L47,4 L47,5 L0,5 L0,4 Z M0,7 L47,7 L47,8 L0,8 L0,7 Z M0,10 L26,10 L26,11 L0,11 L0,10 Z" id="Combined-Shape"></path>
            </g>
            <g id="Group" transform="translate(73.000000, 10.000000)">
                <rect id="Rectangle-107" x="4" y="0" width="10" height="10" rx="100"></rect>
                <path d="M0,13 L18,13 L18,14 L0,14 L0,13 Z M0,16 L18,16 L18,17 L0,17 L0,16 Z M0,19 L18,19 L18,20 L0,20 L0,19 Z M3,22 L15,22 L15,23 L3,23 L3,22 Z" id="Combined-Shape"></path>
            </g>
        </g>
    </g>
</svg>