<?xml version="1.0" encoding="UTF-8" standalone="no"?>
<svg width="34px" height="46px" viewBox="0 0 34 46" version="1.1" xmlns="http://www.w3.org/2000/svg" xmlns:xlink="http://www.w3.org/1999/xlink">
    <!-- Generator: Sketch 3.6.1 (26313) - http://www.bohemiancoding.com/sketch -->
    <title>icon-misc</title>
    <desc>Created with Sketch.</desc>
    <defs></defs>
    <g id="assets" stroke="none" stroke-width="1" fill="none" fill-rule="evenodd">
        <g id="icon-misc" fill="#FFFFFF">
            <path d="M13.7,21.7 L17,18.4 L20.3,21.7 C20.5,21.9 20.8,22 21,22 C21.2,22 21.5,21.9 21.7,21.7 L25.7,17.7 C26.1,17.3 26.1,16.7 25.7,16.3 C25.3,15.9 24.7,15.9 24.3,16.3 L21,19.6 L17.7,16.3 C17.3,15.9 16.7,15.9 16.3,16.3 L13,19.6 L9.7,16.3 C9.3,15.9 8.7,15.9 8.3,16.3 C7.9,16.7 7.9,17.3 8.3,17.7 L12.3,21.7 C12.7,22.1 13.3,22.1 13.7,21.7 L13.7,21.7 Z" id="Shape"></path>
            <path d="M24,41 L24,37 L24,32.5 C30.1,29.7 34,23.7 34,17 C34,7.6 26.4,0 17,0 C7.6,0 0,7.6 0,17 C0,23.7 3.9,29.7 10,32.5 L10,37 L10,41 C10,41.6 10.4,42 11,42 L23,42 C23.6,42 24,41.6 24,41 L24,41 Z M2,17 C2,8.7 8.7,2 17,2 C25.3,2 32,8.7 32,17 C32,23.1 28.3,28.6 22.6,30.9 C22.2,31.1 22,31.4 22,31.8 L22,36 L12,36 L12,31.8 C12,31.4 11.8,31 11.4,30.9 C5.7,28.6 2,23.1 2,17 L2,17 Z M12,40 L12,38 L22,38 L22,40 L12,40 L12,40 Z" id="Shape"></path>
            <path d="M15,44 C14.4,44 14,44.4 14,45 C14,45.6 14.4,46 15,46 L19,46 C19.6,46 20,45.6 20,45 C20,44.4 19.6,44 19,44 L15,44 L15,44 Z" id="Shape"></path>
        </g>
    </g>
</svg>