<?xml version="1.0" encoding="UTF-8" standalone="no"?>
<svg width="30px" height="29px" viewBox="0 0 30 29" version="1.1" xmlns="http://www.w3.org/2000/svg" xmlns:xlink="http://www.w3.org/1999/xlink">
    <!-- Generator: Sketch 3.6.1 (26313) - http://www.bohemiancoding.com/sketch -->
    <title>Artboard</title>
    <desc>Created with Sketch.</desc>
    <defs></defs>
    <g id="assets" stroke="none" stroke-width="1" fill="none" fill-rule="evenodd">
        <g id="Artboard" fill="#FFFFFF">
            <path d="M9.4,15.9 C9.6,16 9.7,16 9.9,16 C10.2,16 10.6,15.8 10.8,15.5 L13,11.7 C13.6,11.9 14.3,12.1 15,12.1 C18.3,12.1 21,9.4 21,6.1 C21,2.8 18.3,0.1 15,0.1 C11.7,0.1 9,2.8 9,6.1 C9,8 9.9,9.7 11.2,10.8 L9,14.6 C8.8,15 9,15.6 9.4,15.9 L9.4,15.9 Z M15,2 C17.2,2 19,3.8 19,6 C19,8.2 17.2,10 15,10 C12.8,10 11,8.2 11,6 C11,3.8 12.8,2 15,2 L15,2 Z" id="Shape"></path>
            <path d="M6,28 C9,28 11.4,25.8 11.9,23 L16,23 C16.6,23 17,22.6 17,22 C17,21.4 16.6,21 16,21 L11.9,21 C11.4,18.2 9,16 6,16 C2.7,16 0,18.7 0,22 C0,25.3 2.7,28 6,28 L6,28 Z M6,18 C8.2,18 10,19.8 10,22 C10,24.2 8.2,26 6,26 C3.8,26 2,24.2 2,22 C2,19.8 3.8,18 6,18 L6,18 Z" id="Shape"></path>
            <path d="M30,22 C30,18.7 27.3,16 24,16 C23.3,16 22.7,16.1 22.1,16.3 L19.9,12.1 C19.6,11.6 19,11.4 18.5,11.7 C18,12 17.8,12.6 18.1,13.1 L20.3,17.3 C18.9,18.4 18,20.1 18,22 C18,25.3 20.7,28 24,28 C27.3,28 30,25.3 30,22 L30,22 Z M24,26 C21.8,26 20,24.2 20,22 C20,19.8 21.8,18 24,18 C26.2,18 28,19.8 28,22 C28,24.2 26.2,26 24,26 L24,26 Z" id="Shape"></path>
        </g>
    </g>
</svg>