<?xml version="1.0" encoding="UTF-8" standalone="no"?>
<svg width="46px" height="42px" viewBox="0 0 46 42" version="1.1" xmlns="http://www.w3.org/2000/svg" xmlns:xlink="http://www.w3.org/1999/xlink">
    <!-- Generator: Sketch 3.6.1 (26313) - http://www.bohemiancoding.com/sketch -->
    <title>Artboard</title>
    <desc>Created with Sketch.</desc>
    <defs></defs>
    <g id="assets" stroke="none" stroke-width="1" fill="none" fill-rule="evenodd">
        <g id="Artboard" fill="#FFFFFF">
            <path d="M14.5,23.5 C14.7,23.6 14.8,23.6 15,23.6 C15.3,23.6 15.7,23.4 15.9,23.1 L19.4,17.2 C20.5,17.7 21.7,18 23,18 C28,18 32,14 32,9 C32,4 28,3.55271368e-15 23,3.55271368e-15 C18,3.55271368e-15 14,4 14,9 C14,12 15.4,14.6 17.6,16.2 L14.1,22.1 C13.9,22.6 14.1,23.2 14.5,23.5 L14.5,23.5 Z M16,9 C16,5.1 19.1,2 23,2 C26.9,2 30,5.1 30,9 C30,12.9 26.9,16 23,16 C19.1,16 16,12.9 16,9 L16,9 Z" id="Shape"></path>
            <path d="M0,33 C0,38 4,42 9,42 C13.6,42 17.4,38.5 17.9,34 L25,34 C25.6,34 26,33.6 26,33 C26,32.4 25.6,32 25,32 L17.9,32 C17.4,27.5 13.6,24 9,24 C4,24 0,28 0,33 L0,33 Z M9,26 C12.7,26 15.8,29 16,32.7 C16,32.8 15.9,32.9 15.9,33 C15.9,33.1 15.9,33.2 16,33.3 C15.8,37 12.7,40 9,40 C5.1,40 2,36.9 2,33 C2,29.1 5.1,26 9,26 L9,26 Z" id="Shape"></path>
            <path d="M37,24 C35.7,24 34.5,24.3 33.4,24.8 L30,18.9 C29.7,18.4 29.1,18.3 28.6,18.5 C28.1,18.8 28,19.4 28.2,19.9 L31.7,25.8 C29.4,27.4 28,30 28,33 C28,38 32,42 37,42 C42,42 46,38 46,33 C46,28 42,24 37,24 L37,24 Z M37,40 C33.1,40 30,36.9 30,33 C30,30.5 31.4,28.2 33.4,27 L33.5,27 L33.6,27 C34.6,26.4 35.8,26.1 37.1,26.1 C41,26.1 44.1,29.2 44.1,33.1 C44.1,37 40.9,40 37,40 L37,40 Z" id="Shape"></path>
        </g>
    </g>
</svg>