<?xml version="1.0" encoding="UTF-8" standalone="no"?>
<svg width="44px" height="46px" viewBox="0 0 44 46" version="1.1" xmlns="http://www.w3.org/2000/svg" xmlns:xlink="http://www.w3.org/1999/xlink">
    <!-- Generator: Sketch 3.6.1 (26313) - http://www.bohemiancoding.com/sketch -->
    <title>Artboard</title>
    <desc>Created with Sketch.</desc>
    <defs></defs>
    <g id="assets" stroke="none" stroke-width="1" fill="none" fill-rule="evenodd">
        <g id="Artboard" fill="#FFFFFF">
            <path d="M19,45 C29.5,45 38,36.5 38,26 C38,22.6 37.1,19.3 35.5,16.5 L36.7,16.9 C36.8,16.9 36.9,17 37,17 C37.3,17 37.5,16.9 37.7,16.7 L43.7,10.7 C43.9,10.5 44,10.1 44,9.8 C43.9,9.5 43.7,9.2 43.3,9.1 L38.8,7.6 L41.7,4.7 C42.1,4.3 42.1,3.7 41.7,3.3 C41.3,2.9 40.7,2.9 40.3,3.3 L37.4,6.2 L35.9,1.7 C35.8,1.4 35.5,1.1 35.2,1 C34.9,0.9 34.5,1 34.3,1.3 L28.3,7.3 C28,7.6 27.9,8 28.1,8.3 L28.5,9.5 C25.7,7.9 22.4,7 19,7 C8.5,7 0,15.5 0,26 C0,36.5 8.5,45 19,45 L19,45 Z M36.7,14.9 L33.5,13.8 C33.4,13.6 33.2,13.5 33.1,13.3 L35.1,11.3 L37.3,9.1 L41.2,10.4 L36.7,14.9 L36.7,14.9 Z M30.1,8.3 L34.5,3.9 L35.8,7.8 L31.6,12 C31.4,11.9 31.3,11.7 31.1,11.6 L30.1,8.3 L30.1,8.3 Z M19,9 C23,9 26.6,10.4 29.5,12.7 L29.9,13.8 L26,17.6 C24.1,16 21.7,15 19,15 C12.9,15 8,19.9 8,26 C8,32.1 12.9,37 19,37 C25.1,37 30,32.1 30,26 C30,23.3 29,20.9 27.4,19 L31.2,15.2 L32.3,15.6 C34.6,18.4 36,22 36,26 C36,35.4 28.4,43 19,43 C9.6,43 2,35.4 2,26 C2,16.6 9.6,9 19,9 L19,9 Z M18.3,26.7 C18.5,26.9 18.8,27 19,27 C19.2,27 19.5,26.9 19.7,26.7 L26,20.4 C27.2,21.9 28,23.9 28,26 C28,31 24,35 19,35 C14,35 10,31 10,26 C10,21 14,17 19,17 C21.1,17 23.1,17.7 24.6,19 L18.3,25.3 C17.9,25.7 17.9,26.3 18.3,26.7 L18.3,26.7 Z" id="Shape"></path>
        </g>
    </g>
</svg>