<?xml version="1.0" encoding="UTF-8" standalone="no"?>
<svg width="24px" height="32px" viewBox="0 0 24 32" version="1.1" xmlns="http://www.w3.org/2000/svg" xmlns:xlink="http://www.w3.org/1999/xlink">
    <!-- Generator: Sketch 3.6.1 (26313) - http://www.bohemiancoding.com/sketch -->
    <title>icon-misc-1</title>
    <desc>Created with Sketch.</desc>
    <defs></defs>
    <g id="assets" stroke="none" stroke-width="1" fill="none" fill-rule="evenodd">
        <g id="icon-misc-1" fill="#FFFFFF">
            <path d="M18,22.4 C21.7,20.3 24,16.3 24,12 C24,5.4 18.6,-1.77635684e-15 12,-1.77635684e-15 C5.4,-1.77635684e-15 0,5.4 0,12 C0,16.3 2.3,20.2 6,22.4 L6,26 C6,26.6 6.4,27 7,27 L17,27 C17.6,27 18,26.6 18,26 L18,22.4 L18,22.4 Z M16.5,20.9 C16.2,21.1 16,21.4 16,21.8 L16,25 L8,25 L8,21.8 C8,21.4 7.8,21.1 7.5,20.9 C4.1,19.2 2,15.8 2,12 C2,6.5 6.5,2 12,2 C17.5,2 22,6.5 22,12 C22,15.8 19.9,19.2 16.5,20.9 L16.5,20.9 Z" id="Shape"></path>
            <path d="M18,29 C18,28.4 17.6,28 17,28 L7,28 C6.4,28 6,28.4 6,29 C6,29.6 6.4,30 7,30 L10,30 C9.4,30 9,30.4 9,31 C9,31.6 9.4,32 10,32 L14,32 C14.6,32 15,31.6 15,31 C15,30.4 14.6,30 14,30 L17,30 C17.6,30 18,29.6 18,29 L18,29 Z" id="Shape"></path>
            <path d="M16.3,13.3 L14,15.6 L12.7,14.3 C12.3,13.9 11.7,13.9 11.3,14.3 L10,15.6 L7.7,13.3 C7.3,12.9 6.7,12.9 6.3,13.3 C5.9,13.7 5.9,14.3 6.3,14.7 L9.3,17.7 C9.7,18.1 10.3,18.1 10.7,17.7 L12,16.4 L13.3,17.7 C13.5,17.9 13.8,18 14,18 C14.2,18 14.5,17.9 14.7,17.7 L17.7,14.7 C18.1,14.3 18.1,13.7 17.7,13.3 C17.3,12.9 16.7,12.9 16.3,13.3 L16.3,13.3 Z" id="Shape"></path>
        </g>
    </g>
</svg>