<?xml version="1.0" encoding="UTF-8" standalone="no"?>
<svg width="32px" height="32px" viewBox="0 0 32 32" version="1.1" xmlns="http://www.w3.org/2000/svg" xmlns:xlink="http://www.w3.org/1999/xlink">
    <!-- Generator: Sketch 3.6.1 (26313) - http://www.bohemiancoding.com/sketch -->
    <title>Artboard</title>
    <desc>Created with Sketch.</desc>
    <defs></defs>
    <g id="assets" stroke="none" stroke-width="1" fill="none" fill-rule="evenodd">
        <g id="Artboard" fill="#FFFFFF">
            <path d="M13,32 C20.2,32 26,26.2 26,19 C26,15.8 24.8,12.8 22.9,10.6 L24.3,9.2 L26.7,10 C26.8,10 26.9,10.1 27,10.1 C27.3,10.1 27.5,10 27.7,9.8 L30.7,6.8 C31,6.5 31.1,6.1 31,5.8 C30.9,5.5 30.7,5.2 30.3,5.1 L28.8,4.6 L29.7,3.7 C30.1,3.3 30.1,2.7 29.7,2.3 C29.3,1.9 28.7,1.9 28.3,2.3 L27.4,3.2 L26.9,1.7 C26.8,1.4 26.5,1.1 26.2,1 C25.9,0.9 25.5,1 25.3,1.3 L22.3,4.3 C22,4.6 21.9,5 22.1,5.3 L22.9,7.7 L21.5,9.1 C19.2,7.2 16.2,6 13,6 C5.8,6 0,11.8 0,19 C0,26.2 5.8,32 13,32 L13,32 Z M28.1,6.4 L26.7,7.8 L25.8,7.5 L27.2,6.1 L28.1,6.4 L28.1,6.4 Z M24.1,5.3 L25.5,3.9 L25.8,4.8 L24.4,6.2 L24.1,5.3 L24.1,5.3 Z M13,8 C15.7,8 18.1,9 20,10.6 L17.9,12.7 C16.5,11.6 14.8,11 13,11 C8.6,11 5,14.6 5,19 C5,23.4 8.6,27 13,27 C17.4,27 21,23.4 21,19 C21,17.2 20.4,15.5 19.3,14.1 L21.4,12 C23,13.9 24,16.4 24,19 C24,25.1 19.1,30 13,30 C6.9,30 2,25.1 2,19 C2,12.9 6.9,8 13,8 L13,8 Z M19,19 C19,22.3 16.3,25 13,25 C9.7,25 7,22.3 7,19 C7,15.7 9.7,13 13,13 C14.3,13 15.5,13.4 16.5,14.1 L14.3,16.3 C13.9,16.1 13.5,16 13,16 C11.3,16 10,17.3 10,19 C10,20.7 11.3,22 13,22 C14.7,22 16,20.7 16,19 C16,18.5 15.9,18.1 15.7,17.7 L17.9,15.5 C18.6,16.5 19,17.7 19,19 L19,19 Z M14,19 C14,19.6 13.6,20 13,20 C12.4,20 12,19.6 12,19 C12,18.4 12.4,18 13,18 C13.6,18 14,18.4 14,19 L14,19 Z" id="Shape"></path>
        </g>
    </g>
</svg>