<?xml version="1.0" encoding="UTF-8" standalone="no"?>
<svg width="58px" height="55px" viewBox="0 0 58 55" version="1.1" xmlns="http://www.w3.org/2000/svg" xmlns:xlink="http://www.w3.org/1999/xlink">
    <!-- Generator: Sketch 3.6.1 (26313) - http://www.bohemiancoding.com/sketch -->
    <title>Artboard</title>
    <desc>Created with Sketch.</desc>
    <defs></defs>
    <g id="assets" stroke="none" stroke-width="1" fill="none" fill-rule="evenodd">
        <g id="Artboard" fill="#FFFFFF">
            <path d="M18.4,29.9 C18.6,30 18.7,30 18.9,30 C19.2,30 19.6,29.8 19.8,29.5 L24.6,21 C26,21.6 27.5,22 29.1,22 C35.2,22 40.1,17.1 40.1,11 C40.1,4.9 35.1,0 29,0 C22.9,0 18,4.9 18,11 C18,14.7 19.9,18.1 22.8,20 L18,28.5 C17.7,29 17.9,29.6 18.4,29.9 L18.4,29.9 Z M20,11 C20,6 24,2 29,2 C34,2 38,6 38,11 C38,16 34,20 29,20 C24,20 20,16 20,11 L20,11 Z" id="Shape"></path>
            <path d="M11,54 C16.7,54 21.4,49.6 21.9,44 L31,44 C31.6,44 32,43.6 32,43 C32,42.4 31.6,42 31,42 L21.9,42 C21.4,36.4 16.7,32 11,32 C4.9,32 0,36.9 0,43 C0,49.1 4.9,54 11,54 L11,54 Z M11,34 C16,34 20,38 20,43 C20,48 16,52 11,52 C6,52 2,48 2,43 C2,38 6,34 11,34 L11,34 Z" id="Shape"></path>
            <path d="M58,43 C58,36.9 53.1,32 47,32 C45.5,32 44,32.3 42.7,32.9 L37.9,23.8 C37.6,23.3 37,23.1 36.5,23.4 C36,23.7 35.8,24.3 36.1,24.8 L41,33.9 C38,35.9 36,39.2 36,43.1 C36,49.2 40.9,54.1 47,54.1 C53.1,54.1 58,49.1 58,43 L58,43 Z M47,52 C42,52 38,48 38,43 C38,38 42,34 47,34 C52,34 56,38 56,43 C56,48 52,52 47,52 L47,52 Z" id="Shape"></path>
        </g>
    </g>
</svg>