<?xml version="1.0" encoding="UTF-8" standalone="no"?>
<svg width="46px" height="62px" viewBox="0 0 46 62" version="1.1" xmlns="http://www.w3.org/2000/svg" xmlns:xlink="http://www.w3.org/1999/xlink">
    <!-- Generator: Sketch 3.6.1 (26313) - http://www.bohemiancoding.com/sketch -->
    <title>Artboard</title>
    <desc>Created with Sketch.</desc>
    <defs></defs>
    <g id="assets" stroke="none" stroke-width="1" fill="none" fill-rule="evenodd">
        <g id="Artboard" fill="#FFFFFF">
            <path d="M34,43.2 C41.4,39.2 46,31.5 46,23 C46,10.3 35.7,0 23,0 C10.3,0 0,10.3 0,23 C0,31.5 4.6,39.1 12,43.2 L12,51 C12,51.6 12.4,52 13,52 L33,52 C33.6,52 34,51.6 34,51 L34,43.2 L34,43.2 Z M32.5,41.7 C32.2,41.9 32,42.2 32,42.6 L32,50 L14,50 L14,42.6 C14,42.2 13.8,41.9 13.5,41.7 C6.4,38.1 2,30.9 2,23 C2,11.4 11.4,2 23,2 C34.6,2 44,11.4 44,23 C44,30.9 39.6,38.1 32.5,41.7 L32.5,41.7 Z" id="Shape"></path>
            <path d="M34,57 C34,56.4 33.6,56 33,56 L13,56 C12.4,56 12,56.4 12,57 C12,57.6 12.4,58 13,58 L33,58 C33.6,58 34,57.6 34,57 L34,57 Z" id="Shape"></path>
            <path d="M19,60 C18.4,60 18,60.4 18,61 C18,61.6 18.4,62 19,62 L27,62 C27.6,62 28,61.6 28,61 C28,60.4 27.6,60 27,60 L19,60 L19,60 Z" id="Shape"></path>
            <path d="M32.3,26.3 L27,31.6 L23.7,28.3 C23.3,27.9 22.7,27.9 22.3,28.3 L19,31.6 L13.7,26.3 C13.3,25.9 12.7,25.9 12.3,26.3 C11.9,26.7 11.9,27.3 12.3,27.7 L18.3,33.7 C18.7,34.1 19.3,34.1 19.7,33.7 L23,30.4 L26.3,33.7 C26.5,33.9 26.8,34 27,34 C27.2,34 27.5,33.9 27.7,33.7 L33.7,27.7 C34.1,27.3 34.1,26.7 33.7,26.3 C33.3,25.9 32.7,25.9 32.3,26.3 L32.3,26.3 Z" id="Shape"></path>
        </g>
    </g>
</svg>