<?xml version="1.0" encoding="UTF-8" standalone="no"?>
<svg width="112px" height="88px" viewBox="0 0 112 88" version="1.1" xmlns="http://www.w3.org/2000/svg" xmlns:xlink="http://www.w3.org/1999/xlink">
    <!-- Generator: Sketch 3.6.1 (26313) - http://www.bohemiancoding.com/sketch -->
    <title>hero</title>
    <desc>Created with Sketch.</desc>
    <defs></defs>
    <g id="assets" stroke="none" stroke-width="1" fill="none" fill-rule="evenodd">
        <g id="hero" fill="#FF5722">
            <path d="M0,4.00984669 C0,1.79526951 1.78186632,0 4.00263463,0 L107.997365,0 C110.207959,0 112,1.79771022 112,4.00984669 L112,83.9901533 C112,86.2047305 110.218134,88 107.997365,88 L4.00263463,88 C1.79204057,88 0,86.2022898 0,83.9901533 L0,4.00984669 Z M4,4.99498429 C4,4.44546964 4.44107707,4 4.99597396,4 L107.004026,4 C107.554087,4 108,4.44978224 108,4.99498429 L108,69 L4,69 L4,4.99498429 Z M4,71 L108,71 L108,83.0014977 C108,83.5529553 107.558923,84 107.004026,84 L4.99597396,84 C4.44591273,84 4,83.5525106 4,83.0014977 L4,71 Z" id="Combined-Shape"></path>
            <path d="M33,48 L79,48 L79,49 L33,49 L33,48 Z M33,43 L79,43 L79,44 L33,44 L33,43 Z M37,53 L74,53 L74,54 L37,54 L37,53 Z" id="Combined-Shape" opacity="0.6"></path>
            <circle id="Oval-4" opacity="0.6" cx="56" cy="27" r="10"></circle>
            <path d="M90,77 L102,77 L102,78 L90,78 L90,77 Z M74,77 L86,77 L86,78 L74,78 L74,77 Z M58,77 L70,77 L70,78 L58,78 L58,77 Z" id="Combined-Shape" opacity="0.6"></path>
            <rect id="Rectangle-4" opacity="0.6" x="11" y="77" width="12" height="1"></rect>
        </g>
    </g>
</svg>