<?xml version="1.0" encoding="UTF-8" standalone="no"?>
<svg width="112px" height="88px" viewBox="0 0 112 88" version="1.1" xmlns="http://www.w3.org/2000/svg" xmlns:xlink="http://www.w3.org/1999/xlink">
    <!-- Generator: Sketch 3.6.1 (26313) - http://www.bohemiancoding.com/sketch -->
    <title>pricingtables</title>
    <desc>Created with Sketch.</desc>
    <defs></defs>
    <g id="assets" stroke="none" stroke-width="1" fill="none" fill-rule="evenodd">
        <g id="pricingtables">
            <rect id="Combined-Shape" fill="#00A5FA" opacity="0.2" x="0" y="0" width="112" height="88" rx="4"></rect>
            <g id="Group" transform="translate(42.000000, 22.000000)">
                <rect id="Rectangle-103" fill="#00A5FA" x="0" y="0" width="28" height="44" rx="1"></rect>
                <rect id="Rectangle-136" fill="#7ED3FC" x="4" y="35" width="20" height="5" rx="0.5"></rect>
                <circle id="Oval-6" fill="#B1E5FD" cx="14" cy="14" r="6"></circle>
                <path d="M5,26 L23,26 L23,27 L5,27 L5,26 Z M5,23 L23,23 L23,24 L5,24 L5,23 Z M8,29 L20,29 L20,30 L8,30 L8,29 Z" id="Combined-Shape" fill="#B1E5FD"></path>
                <rect id="Combined-Shape" fill="#B1E5FD" x="5" y="4" width="18" height="1"></rect>
            </g>
            <g id="Group" transform="translate(14.000000, 25.000000)">
                <rect id="Rectangle-103" fill="#00A5FA" x="0" y="0" width="26" height="38" rx="1"></rect>
                <rect id="Rectangle-136" fill="#7ED3FC" x="3" y="30" width="20" height="5" rx="0.5"></rect>
                <circle id="Oval-6" fill="#B1E5FD" cx="13" cy="12" r="5"></circle>
                <path d="M5,20 L21,20 L21,21 L5,21 L5,20 Z M8,23 L18,23 L18,24 L8,24 L8,23 Z" id="Combined-Shape" fill="#B1E5FD"></path>
                <rect id="Combined-Shape" fill="#B1E5FD" x="5" y="3" width="16" height="1"></rect>
            </g>
            <g id="Group" transform="translate(72.000000, 25.000000)">
                <rect id="Rectangle-103" fill="#00A5FA" x="0" y="0" width="26" height="38" rx="1"></rect>
                <rect id="Rectangle-136" fill="#7ED3FC" x="3" y="30" width="20" height="5" rx="0.5"></rect>
                <circle id="Oval-6" fill="#B1E5FD" cx="13" cy="12" r="5"></circle>
                <path d="M5,20 L21,20 L21,21 L5,21 L5,20 Z M8,23 L18,23 L18,24 L8,24 L8,23 Z" id="Combined-Shape" fill="#B1E5FD"></path>
                <rect id="Combined-Shape" fill="#B1E5FD" x="5" y="3" width="16" height="1"></rect>
            </g>
        </g>
    </g>
</svg>