<?xml version="1.0" encoding="UTF-8" standalone="no"?>
<svg width="112px" height="88px" viewBox="0 0 112 88" version="1.1" xmlns="http://www.w3.org/2000/svg" xmlns:xlink="http://www.w3.org/1999/xlink">
    <!-- Generator: Sketch 3.6.1 (26313) - http://www.bohemiancoding.com/sketch -->
    <title>simplegrids</title>
    <desc>Created with Sketch.</desc>
    <defs></defs>
    <g id="assets" stroke="none" stroke-width="1" fill="none" fill-rule="evenodd">
        <g id="simplegrids" fill="#FFC300">
            <rect id="Combined-Shape" opacity="0.2" x="0" y="0" width="112" height="43" rx="4"></rect>
            <rect id="Rectangle-103" x="18" y="12" width="37" height="8" rx="1"></rect>
            <rect id="Rectangle-103" x="57" y="12" width="37" height="8" rx="1"></rect>
            <rect id="Rectangle-103" x="18" y="23" width="24" height="8" rx="1"></rect>
            <rect id="Rectangle-103" x="44" y="23" width="24" height="8" rx="1"></rect>
            <rect id="Rectangle-103" x="70" y="23" width="24" height="8" rx="1"></rect>
            <rect id="Combined-Shape" opacity="0.2" x="0" y="45" width="112" height="43" rx="4"></rect>
            <rect id="Rectangle-103" x="44" y="68" width="50" height="8" rx="1"></rect>
            <rect id="Rectangle-103" x="18" y="68" width="24" height="8" rx="1"></rect>
            <rect id="Rectangle-103" x="18" y="57" width="38" height="8" rx="1"></rect>
            <rect id="Rectangle-103" x="58" y="57" width="17" height="8" rx="1"></rect>
            <rect id="Rectangle-103" x="77" y="57" width="17" height="8" rx="1"></rect>
        </g>
    </g>
</svg>