<?xml version="1.0" encoding="UTF-8" standalone="no"?>
<svg width="112px" height="88px" viewBox="0 0 112 88" version="1.1" xmlns="http://www.w3.org/2000/svg" xmlns:xlink="http://www.w3.org/1999/xlink">
    <!-- Generator: Sketch 3.6.1 (26313) - http://www.bohemiancoding.com/sketch -->
    <title>split</title>
    <desc>Created with Sketch.</desc>
    <defs></defs>
    <g id="assets" stroke="none" stroke-width="1" fill="none" fill-rule="evenodd">
        <g id="split" fill="#0092F9">
            <path d="M0,4.00984669 C0,1.79526951 1.78186632,0 4.00263463,0 L107.997365,0 C110.207959,0 112,1.79771022 112,4.00984669 L112,83.9901533 C112,86.2047305 110.218134,88 107.997365,88 L4.00263463,88 C1.79204057,88 0,86.2022898 0,83.9901533 L0,4.00984669 Z M4,4.99701481 C4,4.44637873 4.44089794,4 4.99587669,4 L55,4 L55,84 L4.99587669,84 C4.44586918,84 4,83.550093 4,83.0029852 L4,4.99701481 Z M57,4 L107.004123,4 C107.554131,4 108,4.44990703 108,4.99701481 L108,83.0029852 C108,83.5536213 107.559102,84 107.004123,84 L57,84 L57,4 Z" id="Combined-Shape"></path>
            <path d="M65,31 L100,31 L100,32 L65,32 L65,31 Z M65,36 L100,36 L100,37 L65,37 L65,36 Z M65,41 L100,41 L100,42 L65,42 L65,41 Z M65,46 L100,46 L100,47 L65,47 L65,46 Z M65,51 L100,51 L100,52 L65,52 L65,51 Z M65,56 L92,56 L92,57 L65,57 L65,56 Z" id="Combined-Shape" opacity="0.6"></path>
            <circle id="Oval-4" opacity="0.6" cx="29.5" cy="44.5" r="7.5"></circle>
        </g>
    </g>
</svg>